<svg width="512" height="512" viewBox="0 0 512 512" fill="none" xmlns="http://www.w3.org/2000/svg">
  <defs>
    <linearGradient id="grad1" x1="0%" y1="0%" x2="100%" y2="100%">
      <stop offset="0%" style="stop-color:#6366f1;stop-opacity:1" />
      <stop offset="30%" style="stop-color:#7c3aed;stop-opacity:1" />
      <stop offset="70%" style="stop-color:#a855f7;stop-opacity:1" />
      <stop offset="100%" style="stop-color:#c084fc;stop-opacity:1" />
    </linearGradient>
    <filter id="shadow" x="-50%" y="-50%" width="200%" height="200%">
      <feDropShadow dx="0" dy="8" stdDeviation="16" flood-color="#000000" flood-opacity="0.3"/>
    </filter>
  </defs>
  <!-- Background circle with shadow -->
  <circle cx="256" cy="256" r="240" fill="url(#grad1)" filter="url(#shadow)"/>
  <!-- Inner highlight circle -->
  <circle cx="256" cy="256" r="240" fill="none" stroke="rgba(255,255,255,0.2)" stroke-width="2"/>
  <!-- Letter G with better proportions -->
  <path d="M352 184C352 162.91 335.09 146 314 146H198C176.91 146 160 162.91 160 184V328C160 349.09 176.91 366 198 366H314C335.09 366 352 349.09 352 328V272H288V304H320V328C320 330.21 318.21 332 316 332H200C197.79 332 196 330.21 196 328V184C196 181.79 197.79 180 200 180H316C318.21 180 320 181.79 320 184V208H288V240H352V184Z" fill="white"/>
  <!-- Subtle inner glow on letter -->
  <path d="M352 184C352 162.91 335.09 146 314 146H198C176.91 146 160 162.91 160 184V328C160 349.09 176.91 366 198 366H314C335.09 366 352 349.09 352 328V272H288V304H320V328C320 330.21 318.21 332 316 332H200C197.79 332 196 330.21 196 328V184C196 181.79 197.79 180 200 180H316C318.21 180 320 181.79 320 184V208H288V240H352V184Z" fill="none" stroke="rgba(255,255,255,0.3)" stroke-width="1"/>
</svg>